<svg width="1440" height="720" viewBox="0 0 1440 720" fill="none" xmlns="http://www.w3.org/2000/svg">
<path d="M1082.5 342.189C1082.5 362.368 1072.01 381.646 1052.92 399.235C1033.83 416.825 1006.17 432.689 971.958 446.022C903.535 472.686 808.974 489.189 704.5 489.189C600.026 489.189 505.465 472.686 437.042 446.022C402.828 432.689 375.175 416.825 356.083 399.235C336.992 381.646 326.5 362.368 326.5 342.189C326.5 322.011 336.992 302.733 356.083 285.144C375.175 267.554 402.828 251.69 437.042 238.357C505.465 211.693 600.026 195.189 704.5 195.189C808.974 195.189 903.535 211.693 971.958 238.357C1006.17 251.69 1033.83 267.554 1052.92 285.144C1072.01 302.733 1082.5 322.011 1082.5 342.189Z" stroke="white" stroke-opacity="0.1"/>
<path d="M1170.85 415.425C1166.92 444.147 1150.13 469.765 1123.05 491.494C1095.97 513.225 1058.61 531.047 1013.64 544.167C923.678 570.405 803.308 577.803 673.857 560.119C544.405 542.435 430.431 503.023 350.806 453.618C310.994 428.916 279.79 401.728 259.527 373.529C239.267 345.332 229.962 316.15 233.885 287.428C237.809 258.706 254.6 233.089 281.681 211.36C308.764 189.628 346.117 171.806 391.097 158.687C481.054 132.449 601.424 125.05 730.875 142.734C860.326 160.418 974.301 199.831 1053.93 249.235C1093.74 273.937 1124.94 301.125 1145.2 329.325C1165.47 357.521 1174.77 386.703 1170.85 415.425Z" stroke="white" stroke-opacity="0.1"/>
<path d="M1304.21 322.642C1309.24 395.672 1248.85 466.425 1146.76 521.734C1044.72 577.021 901.19 616.768 740.363 627.846C579.536 638.923 431.912 619.231 323.252 578.458C214.546 537.667 145.029 475.863 139.998 402.832C134.968 329.802 195.355 259.049 297.442 203.74C399.485 148.453 543.015 108.706 703.842 97.6283C864.668 86.5506 1012.29 106.243 1120.95 147.016C1229.66 187.807 1299.18 249.611 1304.21 322.642Z" stroke="white" stroke-opacity="0.1"/>
</svg>
