<svg width="87" height="105" viewBox="0 0 87 105" fill="none" xmlns="http://www.w3.org/2000/svg">
<path fill-rule="evenodd" clip-rule="evenodd" d="M0.693409 102.892C-0.0401298 102.892 0.0646613 101.491 0.169452 100.891C0.0646613 100.891 0.0646609 100.791 0.0646609 100.791C-0.144922 99.9898 0.169453 98.6898 0.7982 98.0888C6.03776 93.3858 9.70545 87.4817 11.3821 80.9772C11.3937 80.9495 11.4063 80.919 11.4198 80.8862C11.6507 80.3266 12.1621 79.087 12.954 79.276C13.7923 79.5762 13.5827 80.8771 13.4779 81.4775C12.2204 86.1808 10.1246 90.6838 7.29526 94.6868C13.1636 92.8858 18.9271 91.0838 24.5858 88.8826C35.0649 84.7798 45.2297 78.9758 52.3555 70.2699C55.9184 65.8668 58.2238 60.9635 59.4813 55.5598C60.8436 49.7558 60.9484 43.6516 60.5292 37.7476C60.4244 36.847 60.8436 35.6461 61.5771 35.1458C62.3106 34.6454 62.7298 35.5461 62.7298 36.1465C63.3586 43.3514 62.9394 50.7565 60.9484 57.8614C59.2717 63.7654 56.4423 69.2692 52.3555 74.0725C48.6878 78.3754 44.1818 82.078 39.3614 85.1801C28.8822 91.8848 16.7265 95.5868 4.78027 99.1898C12.43 99.4898 20.0798 100.091 27.7295 101.091C28.6727 101.191 28.3583 102.792 28.2535 103.293C28.0439 103.993 27.52 105.094 26.6816 104.994C18.0888 103.893 9.39108 103.193 0.693409 102.892Z" fill="black"/>
<path d="M48.228 14.972C48.008 14.3707 47.788 13.7473 47.568 13.102C47.3627 12.442 47.1427 11.738 46.908 10.99C46.6733 10.242 46.512 9.72867 46.424 9.45C45.72 11.6647 45.0747 13.498 44.488 14.95C45.4267 14.9793 46.1453 14.994 46.644 14.994C47.4067 14.994 47.9347 14.9867 48.228 14.972ZM46.182 16.622C45.8007 16.622 45.0087 16.6073 43.806 16.578C42.8527 19.0273 42.266 20.6553 42.046 21.462C40.7407 21.3153 40.088 21.0147 40.088 20.56C40.088 20.3547 40.396 19.526 41.012 18.074C41.6427 16.6073 42.4053 14.7447 43.3 12.486C44.1947 10.2273 44.8987 8.22533 45.412 6.48C45.7053 6.436 46.0867 6.414 46.556 6.414C46.9373 6.414 47.2307 6.49467 47.436 6.656C47.656 6.80267 47.8467 7.11067 48.008 7.58C49.1373 11.1 49.9587 13.52 50.472 14.84C51.572 17.7 52.4007 19.68 52.958 20.78C52.4007 21.0733 51.9313 21.22 51.55 21.22C50.934 21.22 50.5087 21.022 50.274 20.626C50.098 20.1713 49.8487 19.504 49.526 18.624C49.218 17.7293 48.976 17.0473 48.8 16.578C47.3627 16.6073 46.49 16.622 46.182 16.622ZM53.9973 16.072V11.518C53.9973 9.45 53.946 7.74867 53.8433 6.414C54.1807 6.37 54.584 6.348 55.0533 6.348C56.0067 6.348 56.4833 6.62667 56.4833 7.184C56.4833 7.272 56.4687 7.57267 56.4393 8.086C56.41 8.58467 56.3807 9.21533 56.3513 9.978C56.322 10.726 56.3073 11.4373 56.3073 12.112V14.004C56.3073 16.908 56.3587 18.668 56.4613 19.284C57.048 19.3133 57.5173 19.328 57.8693 19.328C60.0253 19.328 61.4187 19.1593 62.0493 18.822C62.2107 19.1447 62.2913 19.504 62.2913 19.9C62.2913 20.384 62.1007 20.6993 61.7193 20.846C61.3527 20.978 60.7367 21.044 59.8713 21.044H57.9573C56.652 21.044 55.6767 21.0293 55.0313 21C54.6207 20.9853 54.3347 20.8827 54.1733 20.692C54.0267 20.5013 53.9533 20.186 53.9533 19.746C53.9533 19.5113 53.9607 18.9687 53.9753 18.118C53.99 17.2673 53.9973 16.5853 53.9973 16.072ZM66.0628 8.174C66.1214 8.746 66.1508 10.1173 66.1508 12.288H67.8008C68.9741 12.288 69.8101 12.2587 70.3088 12.2C70.3674 12.332 70.3968 12.5667 70.3968 12.904C70.3968 13.3147 70.3234 13.6007 70.1768 13.762C70.0301 13.9087 69.7954 13.9893 69.4728 14.004C69.1061 14.0187 68.6148 14.026 67.9988 14.026H66.1508C66.1508 16.9447 66.2021 18.6973 66.3048 19.284C66.9208 19.3133 67.4268 19.328 67.8228 19.328C70.1694 19.328 71.6874 19.1667 72.3768 18.844C72.4941 19.1813 72.5528 19.57 72.5528 20.01C72.5528 20.3473 72.4868 20.582 72.3548 20.714C72.0761 20.934 70.8221 21.044 68.5928 21.044C66.5981 21.044 65.3808 21.0293 64.9408 21C64.4861 20.9853 64.1781 20.89 64.0168 20.714C63.8701 20.5233 63.7968 20.2007 63.7968 19.746C63.7968 19.4673 63.8041 18.866 63.8188 17.942C63.8334 17.018 63.8408 16.3067 63.8408 15.808V11.54C63.8408 9.48667 63.7381 7.822 63.5328 6.546C65.1314 6.414 66.7668 6.348 68.4388 6.348C70.6094 6.348 71.8341 6.458 72.1128 6.678C72.2448 6.81 72.3108 7.04467 72.3108 7.382C72.3108 7.822 72.2521 8.218 72.1348 8.57C71.3281 8.262 70.0521 8.108 68.3068 8.108C67.6028 8.108 66.8548 8.13 66.0628 8.174ZM73.5694 20.032C73.5694 19.0347 75.2488 16.842 78.6074 13.454C78.4314 13.2047 78.0501 12.662 77.4634 11.826C76.8768 10.9753 76.4294 10.3447 76.1214 9.934C75.8281 9.52333 75.4541 9.04667 74.9994 8.504C74.5448 7.96133 74.1561 7.55067 73.8334 7.272C74.3468 6.80267 74.7281 6.50933 74.9774 6.392C75.2414 6.26 75.5128 6.194 75.7914 6.194C76.2901 6.194 76.7521 6.458 77.1774 6.986C77.4708 7.35267 77.9181 8.02733 78.5194 9.01C79.1354 9.99267 79.6561 10.8873 80.0814 11.694C80.6828 10.8873 81.2548 9.978 81.7974 8.966C82.3548 7.93933 82.7288 7.02267 82.9194 6.216C84.4741 6.304 85.2514 6.70733 85.2514 7.426C85.2514 7.998 84.8114 8.86333 83.9314 10.022C83.0514 11.1807 82.0761 12.2733 81.0054 13.3C81.8268 14.5173 82.4794 15.478 82.9634 16.182C83.4474 16.886 84.0194 17.656 84.6794 18.492C85.3541 19.328 85.8894 19.8853 86.2854 20.164C85.6548 20.868 85.0241 21.22 84.3934 21.22C83.7774 21.22 83.2714 20.934 82.8754 20.362C81.6288 18.69 80.5141 16.9227 79.5314 15.06C77.5368 17.612 76.3194 19.6653 75.8794 21.22C74.3394 21.1613 73.5694 20.7653 73.5694 20.032Z" fill="black"/>
</svg>
