<svg width="84" height="105" viewBox="0 0 84 105" fill="none" xmlns="http://www.w3.org/2000/svg">
<path fill-rule="evenodd" clip-rule="evenodd" d="M83.3066 102.892C84.0401 102.892 83.9353 101.491 83.8305 100.891C83.9353 100.891 83.9353 100.791 83.9353 100.791C84.1449 99.9898 83.8305 98.6898 83.2018 98.0888C77.9622 93.3858 74.2945 87.4817 72.6179 80.9772C72.6063 80.9495 72.5937 80.919 72.5802 80.8862C72.3493 80.3266 71.8379 79.087 71.046 79.276C70.2077 79.5762 70.4173 80.8771 70.5221 81.4775C71.7796 86.1808 73.8754 90.6838 76.7047 94.6868C70.8364 92.8858 65.0729 91.0838 59.4142 88.8826C48.9351 84.7798 38.7703 78.9758 31.6445 70.2699C28.0816 65.8668 25.7762 60.9635 24.5187 55.5598C23.1564 49.7558 23.0516 43.6516 23.4708 37.7476C23.5756 36.847 23.1564 35.6461 22.4229 35.1458C21.6894 34.6454 21.2702 35.5461 21.2702 36.1465C20.6414 43.3514 21.0606 50.7565 23.0516 57.8614C24.7283 63.7654 27.5577 69.2692 31.6445 74.0725C35.3122 78.3754 39.8182 82.078 44.6386 85.1801C55.1178 91.8848 67.2735 95.5868 79.2197 99.1898C71.57 99.4898 63.9202 100.091 56.2705 101.091C55.3273 101.191 55.6417 102.792 55.7465 103.293C55.9561 103.993 56.48 105.094 57.3184 104.994C65.9112 103.893 74.6089 103.193 83.3066 102.892Z" fill="black"/>
<path d="M1.232 19.834C1.43733 18.4993 1.55467 16.0353 1.584 12.442C1.584 9.87533 1.48867 7.88067 1.298 6.458C2.222 6.282 3.40267 6.194 4.84 6.194C6.028 6.194 7.09133 6.31867 8.03 6.568C8.98333 6.81733 9.84867 7.22067 10.626 7.778C11.418 8.32067 12.0267 9.09067 12.452 10.088C12.892 11.0853 13.112 12.2807 13.112 13.674C13.112 15.874 12.5033 17.6853 11.286 19.108C10.0687 20.516 8.33067 21.22 6.072 21.22C3.98933 21.22 2.376 20.758 1.232 19.834ZM3.784 7.976C3.84267 8.92933 3.872 10.0513 3.872 11.342C3.872 14.378 3.76933 16.8273 3.564 18.69C4.268 19.2033 5.14067 19.46 6.182 19.46C7.00333 19.46 7.71467 19.2987 8.316 18.976C8.91733 18.6387 9.372 18.1987 9.68 17.656C10.0027 17.0987 10.2373 16.5267 10.384 15.94C10.5307 15.3387 10.604 14.7153 10.604 14.07C10.604 12.0167 10.12 10.4767 9.152 9.45C8.19867 8.40867 6.82733 7.888 5.038 7.888C4.75933 7.888 4.34133 7.91733 3.784 7.976ZM22.2573 14.972C22.0373 14.3707 21.8173 13.7473 21.5973 13.102C21.392 12.442 21.172 11.738 20.9373 10.99C20.7026 10.242 20.5413 9.72867 20.4533 9.45C19.7493 11.6647 19.104 13.498 18.5173 14.95C19.456 14.9793 20.1746 14.994 20.6733 14.994C21.436 14.994 21.964 14.9867 22.2573 14.972ZM20.2113 16.622C19.83 16.622 19.038 16.6073 17.8353 16.578C16.882 19.0273 16.2953 20.6553 16.0753 21.462C14.77 21.3153 14.1173 21.0147 14.1173 20.56C14.1173 20.3547 14.4253 19.526 15.0413 18.074C15.672 16.6073 16.4346 14.7447 17.3293 12.486C18.224 10.2273 18.928 8.22533 19.4413 6.48C19.7346 6.436 20.116 6.414 20.5853 6.414C20.9666 6.414 21.26 6.49467 21.4653 6.656C21.6853 6.80267 21.876 7.11067 22.0373 7.58C23.1666 11.1 23.988 13.52 24.5013 14.84C25.6013 17.7 26.43 19.68 26.9873 20.78C26.43 21.0733 25.9606 21.22 25.5793 21.22C24.9633 21.22 24.538 21.022 24.3033 20.626C24.1273 20.1713 23.878 19.504 23.5553 18.624C23.2473 17.7293 23.0053 17.0473 22.8293 16.578C21.392 16.6073 20.5193 16.622 20.2113 16.622ZM38.9606 20.978C38.6673 21.0367 38.3446 21.066 37.9926 21.066C37.2593 21.066 36.768 20.868 36.5186 20.472C35.8293 19.3573 34.7733 17.5607 33.3506 15.082C31.9426 12.6033 30.8793 10.7847 30.1606 9.626L30.2706 15.368C30.3146 18.3307 30.4613 20.1713 30.7106 20.89C30.388 21.0073 30.036 21.066 29.6546 21.066C29.112 21.066 28.738 20.9707 28.5326 20.78C28.342 20.5893 28.2466 20.2667 28.2466 19.812C28.2466 19.5773 28.254 18.998 28.2686 18.074C28.2833 17.15 28.2906 16.4313 28.2906 15.918V11.518C28.2906 9.06867 28.1513 7.39667 27.8726 6.502C28.2393 6.38467 28.6866 6.326 29.2146 6.326C29.8893 6.326 30.4173 6.53867 30.7986 6.964C31.4733 7.712 32.4853 9.20067 33.8346 11.43C35.184 13.6447 36.2326 15.5293 36.9806 17.084C36.8633 15.412 36.8046 13.6373 36.8046 11.76C36.8046 9.57467 36.7533 7.79267 36.6506 6.414C36.988 6.37 37.2886 6.348 37.5526 6.348C38.5206 6.348 39.0046 6.62667 39.0046 7.184C39.0046 7.272 38.99 7.57267 38.9606 8.086C38.9313 8.58467 38.8946 9.21533 38.8506 9.978C38.8213 10.726 38.8066 11.4373 38.8066 12.112V15.874C38.8066 17.942 38.858 19.6433 38.9606 20.978Z" fill="black"/>
</svg>
